<svg width="800" height="600" viewBox="0 0 800 600" fill="none" xmlns="http://www.w3.org/2000/svg">
  <rect width="800" height="600" fill="#0F172A"/>
  
  <!-- Dashboard Window -->
  <rect x="50" y="50" width="700" height="500" rx="12" fill="#1E293B" stroke="#334155" stroke-width="2"/>
  
  <!-- Sidebar -->
  <rect x="50" y="50" width="160" height="500" rx="12" fill="#1E293B"/> <!-- background matches container -->
  <path d="M210 50 V550" stroke="#334155" stroke-width="2"/>
  
  <!-- Sidebar items -->
  <rect x="70" y="90" width="100" height="12" rx="3" fill="#64748B"/>
  <rect x="70" y="130" width="120" height="10" rx="2" fill="#475569"/>
  <rect x="70" y="160" width="120" height="10" rx="2" fill="#475569"/>
  <rect x="70" y="190" width="120" height="10" rx="2" fill="#475569"/>
  <rect x="70" y="220" width="100" height="10" rx="2" fill="#475569"/>
  
  <!-- Active item highlight -->
  <rect x="60" y="150" width="4" height="30" rx="2" fill="#8B5CF6"/>
  
  <!-- Main Content Area -->
  <!-- Top Bar -->
  <rect x="240" y="90" width="480" height="12" rx="3" fill="#334155"/>
  
  <!-- Cards Row -->
  <rect x="240" y="140" width="140" height="100" rx="8" fill="#0F172A" stroke="#334155"/>
  <circle cx="270" cy="170" r="12" fill="#10B981" fill-opacity="0.2"/>
  <circle cx="270" cy="170" r="6" fill="#10B981"/>
  <rect x="260" y="200" width="60" height="8" rx="2" fill="#94A3B8"/>
  <rect x="260" y="220" width="40" height="6" rx="2" fill="#64748B"/>
  
  <rect x="410" y="140" width="140" height="100" rx="8" fill="#0F172A" stroke="#334155"/>
  <circle cx="440" cy="170" r="12" fill="#F59E0B" fill-opacity="0.2"/>
  <circle cx="440" cy="170" r="6" fill="#F59E0B"/>
  <rect x="430" y="200" width="60" height="8" rx="2" fill="#94A3B8"/>
  <rect x="430" y="220" width="40" height="6" rx="2" fill="#64748B"/>
  
  <rect x="580" y="140" width="140" height="100" rx="8" fill="#0F172A" stroke="#334155"/>
  <circle cx="610" cy="170" r="12" fill="#3B82F6" fill-opacity="0.2"/>
  <circle cx="610" cy="170" r="6" fill="#3B82F6"/>
  <rect x="600" y="200" width="60" height="8" rx="2" fill="#94A3B8"/>
  <rect x="600" y="220" width="40" height="6" rx="2" fill="#64748B"/>

  <!-- Large Chart Section -->
  <rect x="240" y="270" width="480" height="200" rx="8" fill="#0F172A" stroke="#334155"/>
  <!-- Y-axis lines -->
  <path d="M280 430 H680" stroke="#334155" stroke-dasharray="4 4"/>
  <path d="M280 390 H680" stroke="#334155" stroke-dasharray="4 4"/>
  <path d="M280 350 H680" stroke="#334155" stroke-dasharray="4 4"/>
  
  <!-- Area Chart -->
  <path d="M280 430 L340 380 L400 410 L460 340 L520 360 L580 320 L640 370 L680 350 V450 H280 Z" fill="#8B5CF6" fill-opacity="0.2"/>
  <path d="M280 430 L340 380 L400 410 L460 340 L520 360 L580 320 L640 370 L680 350" stroke="#8B5CF6" stroke-width="3"/>
  
  <!-- Floating Stats/Tooltip -->
  <rect x="500" y="300" width="80" height="40" rx="4" fill="#1E293B" stroke="#64748B"/>
  <rect x="510" y="315" width="40" height="6" rx="2" fill="#F59E0B"/>
  
</svg>
