<svg width="800" height="600" viewBox="0 0 800 600" fill="none" xmlns="http://www.w3.org/2000/svg">
  <rect width="800" height="600" fill="#0F172A"/>
  <!-- UI Header -->
  <rect x="50" y="50" width="700" height="40" rx="8" fill="#1E293B"/>
  <circle cx="80" cy="70" r="6" fill="#EF4444"/>
  <circle cx="100" cy="70" r="6" fill="#F59E0B"/>
  <circle cx="120" cy="70" r="6" fill="#10B981"/>
  
  <!-- Monitor/Preview Area -->
  <rect x="50" y="110" width="700" height="280" rx="8" fill="#1E293B"/>
  <rect x="60" y="120" width="680" height="260" rx="4" fill="#000000" fill-opacity="0.5"/>
  <!-- Play button icon -->
  <path d="M380 230 L430 250 L380 270 V230 Z" fill="white" fill-opacity="0.8"/>
  
  <!-- Timeline Area -->
  <rect x="50" y="410" width="700" height="140" rx="8" fill="#1E293B"/>
  
  <!-- Tracks -->
  <rect x="50" y="440" width="700" height="1" fill="#334155"/>
  <rect x="50" y="480" width="700" height="1" fill="#334155"/>
  <rect x="50" y="520" width="700" height="1" fill="#334155"/>
  
  <!-- Clips -->
  <rect x="50" y="420" width="120" height="30" rx="4" fill="#3B82F6" fill-opacity="0.8"/>
  <rect x="180" y="420" width="200" height="30" rx="4" fill="#8B5CF6" fill-opacity="0.8"/>
  <rect x="390" y="420" width="150" height="30" rx="4" fill="#10B981" fill-opacity="0.8"/>
  
  <rect x="100" y="460" width="250" height="30" rx="4" fill="#F59E0B" fill-opacity="0.8"/>
  <rect x="400" y="460" width="180" height="30" rx="4" fill="#EC4899" fill-opacity="0.8"/>
  
  <!-- Playhead -->
  <rect x="320" y="410" width="2" height="140" fill="#EF4444"/>
  <path d="M315 410 H325 L320 418 L315 410 Z" fill="#EF4444"/>
</svg>
